<?xml version="1.0" encoding="iso-8859-1"?>
<!-- Generator: Adobe Illustrator 16.0.0, SVG Export Plug-In . SVG Version: 6.00 Build 0)  -->
<!DOCTYPE svg PUBLIC "-//W3C//DTD SVG 1.1//EN" "http://www.w3.org/Graphics/SVG/1.1/DTD/svg11.dtd">
<svg version="1.1" id="Capa_1" xmlns="http://www.w3.org/2000/svg" xmlns:xlink="http://www.w3.org/1999/xlink" x="0px" y="0px"
	 width="323.788px" height="323.788px" viewBox="0 0 323.788 323.788" color="#ff00ff"
	 xml:space="preserve">
<g>
	<g>
		<path style="fill:#008CBA;" d="M32.305,75.414c9.376,12.82,24.532,21.911,37.563,30.444c2.183,1.434,4.358,3.011,6.528,4.641l-26.66,26.657
			l14.078,52.692l133.943,133.94l102.969-102.969L166.791,86.879l-52.692-14.08l-28.236,28.239
			C71.824,92.321,30.486,67.694,55.379,51.22c20.013-13.241,49.95-15.188,72.982-18.066c48.344-6.044,101.733-2.363,148.629-16.554
			c6.855-2.078,3.934-12.819-2.959-10.736c-26.341,7.973-55.655,8.21-83.051,10.262c3.971-1.582,7.836-3.386,11.501-5.653
			c6.097-3.76,0.512-13.389-5.616-9.608C149.75,29.941,80.436-7.115,34.341,26.672C17.692,38.875,21.624,60.812,32.305,75.414z
			 M223.95,179.317c2.109,2.109,2.109,5.521,0,7.636l-58.019,58.028c-1.055,1.05-2.437,1.582-3.821,1.582
			c-1.381,0-2.763-0.532-3.817-1.582c-2.112-2.114-2.112-5.526,0-7.636l58.021-58.028
			C218.423,177.213,221.835,177.213,223.95,179.317z M183.914,146.917c2.109-2.115,5.521-2.115,7.636,0
			c2.109,2.109,2.109,5.521,0,7.636l-58.021,58.029c-1.052,1.049-2.436,1.582-3.818,1.582s-2.764-0.533-3.818-1.582
			c-2.112-2.115-2.112-5.526,0-7.636L183.914,146.917z M94.869,120.033c0.195,0.306,0.411,0.601,0.675,0.886
			c1.044,1.112,2.152,2.125,3.296,3.074c-0.973,2.22-1.523,4.667-1.523,7.24c0,10.02,8.155,18.173,18.172,18.173
			c10.017,0,18.17-8.153,18.17-18.173c0-10.014-8.153-18.172-18.17-18.172c-3.42,0-6.584,1.007-9.315,2.652
			c-0.938-0.796-1.859-1.698-2.755-2.663c-0.454-0.485-0.933-0.817-1.424-1.097c3.829-2.685,8.466-4.298,13.495-4.298
			c12.997,0,23.57,10.573,23.57,23.572s-10.573,23.572-23.57,23.572c-12.999,0-23.572-10.573-23.572-23.572
			C91.916,127.157,93.05,123.382,94.869,120.033z M103.834,131.229c0-1.255,0.248-2.441,0.617-3.575
			c5.608,2.694,11.862,2.958,18.014-0.992c1.084-0.696,1.783-1.587,2.181-2.547c1.535,1.967,2.489,4.419,2.489,7.114
			c0,6.434-5.215,11.649-11.646,11.649C109.058,142.877,103.834,137.662,103.834,131.229z M70.116,25.527
			c13.993-2.352,29.492-2.188,45.296-1.861c-11.011,1.593-21.967,3.491-32.812,5.928c-16.355,3.681-41.093,9.919-46.385,28.492
			c-0.161,0.569-0.185,1.128-0.292,1.692C29.724,42.36,47.582,29.319,70.116,25.527z"/>
	</g>
</g>
<g>
</g>
<g>
</g>
<g>
</g>
<g>
</g>
<g>
</g>
<g>
</g>
<g>
</g>
<g>
</g>
<g>
</g>
<g>
</g>
<g>
</g>
<g>
</g>
<g>
</g>
<g>
</g>
<g>
</g>
</svg>
